<svg width="66" height="65" viewBox="0 0 66 65" fill="none" xmlns="http://www.w3.org/2000/svg">
<path d="M64.0019 40.2109H59.7142C59.1215 40.2109 58.6423 40.6912 58.6423 41.2829H47.9231C47.638 41.2829 47.3657 41.3954 47.1653 41.5969L41.1272 47.635L19.8689 43.938C18.8495 43.7622 17.8076 44.0409 17.0133 44.7087C16.2212 45.3754 15.7656 46.353 15.7656 47.3896C15.7656 48.6298 16.4313 49.7896 17.5032 50.4156L40.8871 64.0557C41.4327 64.3741 42.0415 64.5349 42.6515 64.5338C43.1874 64.5338 43.7234 64.4105 44.2197 64.1629L55.6795 58.4335H58.6423C58.6423 59.0252 59.1215 59.5054 59.7142 59.5054H64.0019C64.5947 59.5054 65.0738 59.0252 65.0738 58.4335V41.2829C65.0738 40.6912 64.5947 40.2109 64.0019 40.2109ZM58.6423 56.2897H55.4266C55.2604 56.2897 55.0953 56.3283 54.9474 56.4022L43.2603 62.2463C42.8465 62.4521 42.3631 62.4361 41.9676 62.2045L18.5848 48.5644C18.1678 48.3211 17.9095 47.8709 17.9095 47.3896C17.9095 46.9876 18.0863 46.6081 18.394 46.3487C18.7016 46.0904 19.1046 45.9821 19.5023 46.0497L39.2728 49.4884L38.4045 50.3566C37.6306 51.1316 37.204 52.1617 37.204 53.2572C37.204 55.5211 39.0455 57.3616 41.3073 57.3616C42.4038 57.3616 43.434 56.935 44.209 56.1589L49.7529 50.616L48.2372 49.1003L42.6933 54.6443C42.3277 55.0088 41.8239 55.2178 41.3073 55.2178C40.2268 55.2178 39.3478 54.3388 39.3478 53.2572C39.3478 52.7341 39.5515 52.2411 39.9213 51.8713L48.3669 43.4267H58.6423V56.2897ZM62.93 57.3616H60.7862V42.3548H62.93V57.3616Z" fill="white"/>
<path d="M38.2753 16.625C34.7283 16.625 31.8438 19.5095 31.8438 23.0565C31.8438 26.6035 34.7283 29.488 38.2753 29.488C41.8222 29.488 44.7068 26.6035 44.7068 23.0565C44.7068 19.5095 41.8222 16.625 38.2753 16.625ZM38.2753 27.3442C35.9106 27.3442 33.9876 25.4212 33.9876 23.0565C33.9876 20.6919 35.9106 18.7688 38.2753 18.7688C40.6399 18.7688 42.5629 20.6919 42.5629 23.0565C42.5629 25.4212 40.6399 27.3442 38.2753 27.3442Z" fill="white"/>
<path d="M58.6414 0.546875H17.9085C17.3158 0.546875 16.8366 1.02709 16.8366 1.61879V5.90646V10.1941H8.26127C7.97614 10.1941 7.70387 10.3067 7.50342 10.5082L0 18.0116L1.51569 19.5273L8.70504 12.338H16.8366V15.5537V18.7695H11.477V20.9133H17.9085H25.4119C26.5943 20.9133 27.5558 21.8748 27.5558 23.0571C27.5558 23.6285 27.3328 24.1666 26.9266 24.5718C26.5203 24.9769 25.9822 25.201 25.4119 25.201H17.9085C17.7649 25.201 17.6255 25.2299 17.4958 25.2846C17.3651 25.3393 17.2482 25.4175 17.1496 25.5161L13.9349 28.7308L15.4506 30.2465L16.8366 28.8605V30.5606V34.8482H0.757846V36.9921H17.9085H23.2681H53.2818H58.6414C59.2342 36.9921 59.7133 36.5118 59.7133 35.9202V30.5606V15.5537V10.1941V5.90646V1.61879C59.7133 1.02709 59.2342 0.546875 58.6414 0.546875ZM18.9804 11.266H22.0601C21.672 12.771 20.4843 13.9576 18.9804 14.3467V11.266ZM18.9804 34.8482V31.7675C20.4843 32.1566 21.672 33.3433 22.0601 34.8482H18.9804ZM57.5695 34.8482H54.4898C54.8779 33.3433 56.0656 32.1566 57.5695 31.7675V34.8482ZM57.5695 29.5851C54.8822 30.0385 52.7608 32.1609 52.3064 34.8482H24.2436C23.7901 32.1609 21.6677 30.0396 18.9804 29.5851V27.3448H25.4119C26.5546 27.3448 27.6319 26.8978 28.4423 26.0875C29.2537 25.2771 29.6996 24.2009 29.6996 23.0571C29.6996 20.6925 27.7766 18.7695 25.4119 18.7695H18.9804V16.5292C21.6677 16.0757 23.7891 13.9533 24.2436 11.266H52.3064C52.7598 13.9533 54.8822 16.0747 57.5695 16.5292V29.5851ZM57.5695 14.3467C56.0656 13.9576 54.8779 12.771 54.4898 11.266H57.5695V14.3467ZM57.5695 9.12221H53.2818H23.2681H18.9804V6.97838H57.5695V9.12221ZM57.5695 4.83454H18.9804V2.69071H57.5695V4.83454Z" fill="white"/>
</svg>
