<svg width="27" height="22" viewBox="0 0 27 22" fill="none" xmlns="http://www.w3.org/2000/svg">
<path d="M25.8356 7.30324L13.4361 0.551964C13.3601 0.513929 13.2459 0.513929 13.1699 0.551964L0.808391 7.30324C0.713303 7.36029 0.65625 7.45538 0.65625 7.55047C0.65625 7.64555 0.713303 7.75966 0.808391 7.79769L4.84014 10.0037V16.5839C4.84014 16.6789 4.89719 16.7931 4.99228 16.8311L13.1509 21.3002C13.1889 21.3193 13.2459 21.3383 13.284 21.3383C13.322 21.3383 13.3791 21.3193 13.4171 21.3002L21.5757 16.8311C21.6708 16.774 21.7278 16.6789 21.7278 16.5839V10.0228L23.7247 9.01482V16.4888C23.7247 16.6409 23.8578 16.774 24.0099 16.774H25.7025C25.8547 16.774 25.9878 16.6409 25.9878 16.4888V7.56948C25.9878 7.45538 25.9307 7.36029 25.8356 7.30324ZM21.5567 7.56948L13.303 12.0767L5.08737 7.56948L13.303 3.13837L21.5567 7.56948ZM7.10324 11.2779L13.1509 14.568C13.2269 14.606 13.341 14.606 13.4171 14.568L19.4647 11.335V15.4238L13.284 18.847L7.10324 15.4238V11.2779Z" fill="black"/>
<path d="M13.3009 21.4299C13.2439 21.4299 13.1678 21.4109 13.1108 21.3919L4.95219 16.9228C4.83808 16.8467 4.76201 16.7326 4.76201 16.5804V10.0574L0.768302 7.88937C0.654196 7.83231 0.578125 7.69919 0.578125 7.54705C0.578125 7.39491 0.654196 7.2808 0.768302 7.20473L13.1108 0.472477C13.2249 0.415424 13.358 0.415424 13.4721 0.472477L25.8716 7.22375C25.9857 7.29982 26.0618 7.41393 26.0618 7.56607V16.4854C26.0618 16.6945 25.8906 16.8657 25.6814 16.8657H23.9889C23.7797 16.8657 23.6085 16.6945 23.6085 16.4854V9.16355L21.8018 10.0764V16.5995C21.8018 16.7326 21.7258 16.8657 21.6117 16.9418L13.4721 21.3919C13.4151 21.4109 13.358 21.4299 13.3009 21.4299ZM13.3009 0.624618C13.2629 0.624618 13.2439 0.624619 13.2059 0.643636L0.86339 7.39491C0.806337 7.43294 0.768302 7.49 0.768302 7.56607C0.768302 7.64214 0.806337 7.69919 0.86339 7.73723L4.95219 9.94328V16.5804C4.95219 16.6565 4.99022 16.7136 5.04728 16.7516L13.2059 21.2208C13.2629 21.2588 13.339 21.2588 13.396 21.2208L21.5546 16.7516C21.6117 16.7136 21.6497 16.6565 21.6497 16.5804V9.94328L23.8367 8.84025V16.4663C23.8367 16.5804 23.9128 16.6565 24.0269 16.6565H25.7195C25.8336 16.6565 25.9097 16.5804 25.9097 16.4663V7.56607C25.9097 7.49 25.8716 7.43294 25.8146 7.39491L13.377 0.643636C13.358 0.624619 13.32 0.624618 13.3009 0.624618ZM13.3009 18.9196L13.2629 18.9006L7.0061 15.4584V11.1034L13.1868 14.4695C13.2439 14.5075 13.32 14.5075 13.358 14.4695L19.5387 11.1604V15.4584L13.3009 18.9196ZM7.19627 15.3443L13.2819 18.7104L19.3676 15.3443V11.4837L13.4721 14.6406C13.358 14.6977 13.2249 14.6977 13.1108 14.6406L7.19627 11.4267V15.3443ZM13.3009 12.1683L4.89514 7.56607L13.3009 3.02085L21.7638 7.56607L13.3009 12.1683ZM5.27549 7.56607L13.2819 11.9591L21.3454 7.56607L13.3009 3.23004L5.27549 7.56607Z" fill="black"/>
</svg>
