<svg width="23" height="22" viewBox="0 0 23 22" fill="none" xmlns="http://www.w3.org/2000/svg">
<path d="M3.23895 21.6615C2.56277 21.6615 1.98801 21.4248 1.51468 20.9515C1.04135 20.4781 0.804688 19.8865 0.804688 19.2103V7.27564C0.804688 6.59946 1.04135 6.0247 1.51468 5.55137C1.98801 5.07805 2.56277 4.84138 3.23895 4.84138H7.05939V2.57617C7.05939 1.89998 7.29605 1.32523 7.76938 0.834993C8.24271 0.361664 8.81746 0.125 9.49365 0.125H14.0917C14.7679 0.125 15.3426 0.361664 15.816 0.834993C16.2893 1.30832 16.526 1.89998 16.526 2.57617V4.84138H20.3464C21.0226 4.84138 21.5973 5.07805 22.0876 5.55137C22.5609 6.0247 22.7976 6.59946 22.7976 7.27564V19.2103C22.7976 19.8865 22.5609 20.4612 22.0876 20.9515C21.6142 21.4248 21.0226 21.6615 20.3464 21.6615H3.23895ZM3.23895 19.2103H20.3295V7.27564H3.23895V19.2103ZM9.47674 4.85829H14.0748V2.57617H9.47674V4.85829Z" fill="black"/>
<path d="M20.3268 21.7446H3.23625C2.54317 21.7446 1.95151 21.491 1.46127 21.0008C0.971039 20.5105 0.734375 19.902 0.734375 19.2089V7.27423C0.734375 6.58114 0.987944 5.98948 1.46127 5.49925C1.95151 5.00901 2.54317 4.77235 3.23625 4.77235H6.97217V2.57475C6.97217 1.88166 7.22574 1.2731 7.69907 0.782865C8.1893 0.292631 8.78096 0.0390625 9.47405 0.0390625H14.0721C14.7652 0.0390625 15.3568 0.292631 15.8471 0.782865C16.3373 1.2731 16.574 1.88166 16.574 2.57475V4.75544H20.3099C21.003 4.75544 21.6115 5.00901 22.1018 5.48234C22.592 5.97257 22.8456 6.56424 22.8456 7.25732V19.192C22.8456 19.8851 22.592 20.4936 22.1018 20.9839C21.6285 21.491 21.0199 21.7446 20.3268 21.7446ZM3.23625 4.94139C2.59388 4.94139 2.03603 5.17806 1.5796 5.63448C1.12318 6.09091 0.903421 6.64876 0.903421 7.29113V19.2258C0.903421 19.8851 1.14009 20.4429 1.59651 20.8993C2.05293 21.3558 2.61078 21.5924 3.25316 21.5924H20.3437C21.003 21.5924 21.5608 21.3558 22.0173 20.8993C22.4737 20.4429 22.7103 19.8681 22.7103 19.2258V7.27423C22.7103 6.63185 22.4737 6.074 22.0173 5.61758C21.5608 5.16115 20.9861 4.92449 20.3437 4.92449H16.4387V2.57475C16.4387 1.91547 16.2021 1.35762 15.7457 0.901197C15.2892 0.444773 14.7314 0.208108 14.089 0.208108H9.47405C8.83167 0.208108 8.27382 0.444773 7.8174 0.901197C7.36098 1.35762 7.12431 1.93238 7.12431 2.57475V4.92449H3.23625V4.94139ZM20.4113 19.2934H3.15173V7.1897H20.4113V19.2934ZM3.32078 19.1243H20.2423V7.35875H3.32078V19.1243ZM14.1566 4.94139H9.38953V2.49023H14.1566V4.94139ZM9.55857 4.77235H13.9876V2.65927H9.55857V4.77235Z" fill="black"/>
</svg>
