<svg width="25" height="20" viewBox="0 0 25 20" fill="none" xmlns="http://www.w3.org/2000/svg">
<path d="M12.7889 12.3481L14.1075 9.56586L17.001 8.29802L14.1075 7.03014L12.7889 4.26555L11.4704 7.03014L8.59516 8.29802L11.4887 9.56586L12.7889 12.3481ZM3.61395 16.0812C3.19274 16.0812 2.77152 15.9051 2.47851 15.6233C2.16718 15.3416 1.98405 14.9542 2.00236 14.5316V2.08205C2.00236 1.67705 2.18549 1.27205 2.47851 0.990307C2.77152 0.690955 3.17443 0.514848 3.61395 0.532457H21.9456C22.8246 0.550066 23.5388 1.23682 23.5571 2.08205V14.5316C23.5388 15.3768 22.8246 16.0636 21.9456 16.0812H3.61395ZM3.61395 14.5316H21.9456V2.08205H3.61395V14.5316ZM1.72767 19.1979C1.28815 19.1979 0.921875 18.8458 0.921875 18.4232C0.921875 18.0006 1.28815 17.6483 1.72767 17.6483H23.8318C24.2714 17.6483 24.6376 18.0006 24.6376 18.4232C24.6376 18.8458 24.2714 19.1979 23.8318 19.1979H1.72767Z" fill="black"/>
<path d="M23.8509 19.3712H1.74671C1.19731 19.3712 0.757812 18.9486 0.757812 18.4204C0.757812 17.8921 1.19731 17.4695 1.74671 17.4695H23.8509C24.4003 17.4695 24.8398 17.8921 24.8398 18.4204C24.8398 18.9486 24.382 19.3712 23.8509 19.3712ZM1.7284 17.8216C1.38045 17.8216 1.10575 18.0858 1.10575 18.4204C1.10575 18.7549 1.38045 19.0191 1.7284 19.0191H23.8326C24.1805 19.0191 24.4552 18.7549 24.4552 18.4204C24.4552 18.0858 24.1805 17.8216 23.8326 17.8216H1.7284ZM21.9646 16.2545H3.63299C3.15685 16.2545 2.69901 16.0608 2.36937 15.7262C2.02142 15.4092 1.83828 14.969 1.83828 14.5111V2.06162C1.83828 1.60379 2.03973 1.16358 2.38768 0.846623C2.69901 0.529662 3.15685 0.335938 3.63299 0.335938H21.9646C22.9535 0.353546 23.741 1.11074 23.7593 2.06162V14.5111C23.741 15.4796 22.9352 16.2368 21.9646 16.2545ZM3.61468 15.9023H21.9463C22.7338 15.8847 23.3564 15.2683 23.3748 14.5111V2.07925C23.3564 1.32206 22.7155 0.723352 21.928 0.705743H3.59638C3.23011 0.705743 2.86384 0.864232 2.60745 1.11076C2.33275 1.37489 2.16793 1.70946 2.16793 2.07925V14.5288C2.16793 14.8986 2.31444 15.2331 2.58914 15.4973C2.88216 15.7614 3.24842 15.9023 3.61468 15.9023ZM22.1477 14.7049H3.44986V1.90316H22.1477V14.7049ZM3.79782 14.3527H21.7632V2.25534H3.79782V14.3527ZM12.7896 12.7679L11.3246 9.70393L8.13806 8.29522L11.3246 6.8865L12.7896 3.82252L14.2547 6.8865L17.4412 8.29522L14.2547 9.70393L12.7896 12.7679ZM9.01711 8.3128L11.5993 9.45738L12.7896 11.9403L13.98 9.45738L16.5622 8.3128L13.98 7.16822L12.7896 4.68538L11.5993 7.16822L9.01711 8.3128Z" fill="black"/>
</svg>
