<svg width="25" height="17" viewBox="0 0 25 17" fill="none" xmlns="http://www.w3.org/2000/svg">
<path d="M12.6466 8.40076C13.0678 7.86967 13.3974 7.32027 13.5988 6.77088C13.8003 6.20316 13.9102 5.5622 13.9102 4.81135C13.9102 4.06051 13.8003 3.41954 13.5988 2.85183C13.3974 2.28411 13.0678 1.73472 12.6466 1.22194C13.9102 0.947244 15.009 1.13038 15.9613 1.78966C16.9136 2.44893 17.3897 3.45617 17.3897 4.81135C17.3897 6.16654 16.9136 7.17377 15.9613 7.83305C15.009 8.49233 13.9102 8.67546 12.6466 8.40076ZM18.0124 16.4952V14.1695C18.0124 13.327 17.7926 12.5396 17.3714 11.807C16.9502 11.0745 16.1993 10.4702 15.1372 9.9757C17.994 10.342 19.9536 10.8731 21.0157 11.569C22.0596 12.2649 22.5907 13.1256 22.5907 14.1695V16.4952H18.0124ZM20.741 9.31643V6.84413H18.2504V5.36075H20.741V2.87014H22.2244V5.36075H24.715V6.84413H22.2244V9.33474H20.741V9.31643ZM8.69088 8.52895C7.59208 8.52895 6.71304 8.181 6.01713 7.4851C5.32123 6.78919 4.97328 5.89184 4.97328 4.81135C4.97328 3.73087 5.32123 2.83351 6.01713 2.13761C6.71304 1.4417 7.61039 1.09375 8.69088 1.09375C9.77136 1.09375 10.6687 1.4417 11.3646 2.13761C12.0605 2.83351 12.4085 3.73087 12.4085 4.81135C12.4085 5.89184 12.0605 6.78919 11.3646 7.4851C10.687 8.181 9.78967 8.52895 8.69088 8.52895ZM0.871094 16.4952V14.1695C0.871094 13.5834 1.0176 13.0707 1.32893 12.5945C1.64025 12.1184 2.04315 11.7704 2.55592 11.5323C3.74628 11.0012 4.80846 10.6167 5.74243 10.3969C6.67641 10.1588 7.66533 10.049 8.69088 10.049C9.71642 10.049 10.687 10.1588 11.621 10.3969C12.555 10.6167 13.6172 11.0012 14.8075 11.5323C15.3203 11.7704 15.7415 12.1184 16.0528 12.5945C16.3642 13.0707 16.529 13.5834 16.529 14.1695V16.4952H0.871094ZM8.69088 7.04558C9.33184 7.04558 9.86293 6.82582 10.2841 6.40461C10.7053 5.9834 10.9251 5.45232 10.9251 4.81135C10.9251 4.17039 10.7053 3.6393 10.2841 3.21809C9.86293 2.79689 9.33184 2.57713 8.69088 2.57713C8.04991 2.57713 7.51883 2.79689 7.09762 3.21809C6.67641 3.6393 6.45665 4.17039 6.45665 4.81135C6.45665 5.45232 6.67641 5.9834 7.09762 6.40461C7.51883 6.82582 8.04991 7.04558 8.69088 7.04558ZM2.37279 15.0119H15.0273V14.1695C15.0273 13.9131 14.954 13.6567 14.8258 13.4186C14.6976 13.1805 14.4779 12.9974 14.2032 12.8692C13.0678 12.3381 12.0972 11.9902 11.2914 11.807C10.4856 11.6239 9.64317 11.5323 8.69088 11.5323C7.73858 11.5323 6.87786 11.6239 6.09039 11.807C5.30292 11.9902 4.33231 12.3381 3.14194 12.8692C2.88556 12.9791 2.70242 13.1622 2.55592 13.4003C2.40941 13.6384 2.33616 13.8948 2.33616 14.1511V15.0119H2.37279Z" fill="black"/>
<path d="M22.755 16.679H17.8288V14.1701C17.8288 13.3643 17.6273 12.5951 17.2061 11.8992C16.8032 11.2033 16.0707 10.6173 15.0451 10.1411L13.983 9.64667L15.1367 9.79318C18.0119 10.1594 20.008 10.7088 21.0885 11.4048C22.1873 12.1373 22.755 13.0529 22.755 14.1701V16.679ZM18.195 16.3127H22.3888V14.1701C22.3888 13.1811 21.8943 12.3754 20.8871 11.7161C19.9897 11.1301 18.3782 10.6356 16.0707 10.2876C16.7116 10.7088 17.1878 11.185 17.4991 11.7161C17.9386 12.4669 18.1767 13.291 18.1767 14.1701V16.3127H18.195ZM16.6933 16.679H0.6875V14.1701C0.6875 13.5657 0.85232 12.998 1.18196 12.5036C1.5116 12.0091 1.95112 11.6245 2.4822 11.3864C3.67257 10.8554 4.75305 10.4708 5.70535 10.2327C6.65764 9.99463 7.64656 9.88475 8.69042 9.88475C9.73427 9.88475 10.7232 9.99463 11.6572 10.2327C12.5912 10.4708 13.6716 10.8554 14.862 11.3864C15.4114 11.6245 15.8509 12.0091 16.1806 12.5036C16.5102 12.998 16.675 13.5657 16.675 14.1884V16.679H16.6933ZM1.05377 16.3127H16.3271V14.1701C16.3271 13.639 16.1806 13.1262 15.8875 12.6867C15.5945 12.2472 15.21 11.9175 14.7155 11.6978C13.5434 11.1667 12.4996 10.8004 11.5839 10.5623C10.6683 10.3426 9.69765 10.2144 8.70873 10.2144C7.7015 10.2144 6.73089 10.3243 5.81523 10.5623C4.88125 10.8004 3.81908 11.1667 2.64702 11.6978C2.17088 11.9175 1.7863 12.2472 1.49329 12.6867C1.20027 13.1262 1.07208 13.6207 1.07208 14.1701V16.3127H1.05377ZM15.21 15.1956H2.18919V14.1701C2.18919 13.877 2.26244 13.584 2.42726 13.3277C2.59208 13.0529 2.81184 12.8515 3.08654 12.7233C4.27691 12.1922 5.26583 11.826 6.07161 11.6428C6.85908 11.4597 7.75644 11.3681 8.70873 11.3681C9.66102 11.3681 10.5584 11.4597 11.3642 11.6428C12.1699 11.826 13.1589 12.1922 14.3126 12.7233C14.6239 12.8698 14.862 13.0896 15.0085 13.346C15.155 13.6023 15.2283 13.877 15.2283 14.1884V15.1956H15.21ZM2.55546 14.8293H14.8437V14.1701C14.8437 13.932 14.7887 13.7122 14.6606 13.5108C14.5507 13.3093 14.3675 13.1628 14.1295 13.0346C13.0124 12.5219 12.0418 12.1556 11.2543 11.9725C10.4851 11.7893 9.60608 11.6978 8.69042 11.6978C7.77475 11.6978 6.91402 11.7893 6.14487 11.9725C5.37571 12.1556 4.4051 12.5035 3.23305 13.0346C3.01329 13.1262 2.84847 13.291 2.73859 13.4925C2.6104 13.6939 2.55546 13.932 2.55546 14.1517V14.8293ZM22.4071 9.50017H20.5574V7.02787H18.0668V5.15991H20.5574V2.68762H22.4071V5.17823H24.8977V7.02787H22.4071V9.50017ZM20.9237 9.1339H22.0408V6.66161H24.5314V5.54449H22.0408V3.05388H20.9237V5.54449H18.4331V6.66161H20.9237V9.1339ZM13.7266 8.7127C13.3603 8.7127 12.994 8.67607 12.6095 8.5845L12.3165 8.51125L12.4996 8.27318C12.9208 7.7604 13.2321 7.22932 13.4336 6.67992C13.635 6.14883 13.7266 5.50787 13.7266 4.77533C13.7266 4.0428 13.635 3.42015 13.4336 2.87075C13.2321 2.32135 12.9208 1.79026 12.4996 1.27749L12.3165 1.03942L12.6095 0.966165C13.9097 0.673153 15.0818 0.874599 16.0707 1.5705C17.0779 2.26641 17.5724 3.32858 17.5724 4.75702C17.5724 6.16715 17.0596 7.24763 16.0707 7.94354C15.3565 8.47462 14.5873 8.7127 13.7266 8.7127ZM12.9757 8.27318C14.0562 8.45631 15.0268 8.25486 15.8509 7.66884C16.7666 7.04619 17.2061 6.09389 17.2061 4.79365C17.2061 3.4934 16.7666 2.54111 15.8509 1.91846C15.0268 1.33243 14.0562 1.1493 12.9757 1.31412C13.3237 1.79026 13.5984 2.26641 13.7815 2.76087C14.0013 3.3469 14.1112 4.02449 14.1112 4.79365C14.1112 5.56281 14.0013 6.2404 13.7815 6.82643C13.5801 7.32088 13.3237 7.81534 12.9757 8.27318ZM8.69042 8.7127C7.55499 8.7127 6.6027 8.34643 5.88848 7.6139C5.15595 6.88136 4.78968 5.94739 4.78968 4.81196C4.78968 3.67654 5.15595 2.72424 5.88848 2.01002C6.62101 1.27749 7.55499 0.911226 8.69042 0.911226C9.82584 0.911226 10.7781 1.27749 11.4924 2.01002C12.2249 2.74256 12.5912 3.67654 12.5912 4.81196C12.5912 5.94739 12.2249 6.89968 11.4924 7.6139C10.7781 8.34643 9.82584 8.7127 8.69042 8.7127ZM8.69042 1.25918C7.64656 1.25918 6.80414 1.58882 6.14487 2.2481C5.48559 2.90738 5.15595 3.7681 5.15595 4.79365C5.15595 5.83751 5.48559 6.67992 6.14487 7.3392C6.80414 7.99848 7.66487 8.32812 8.69042 8.32812C9.71596 8.32812 10.5767 7.99848 11.236 7.3392C11.8952 6.67992 12.2249 5.81919 12.2249 4.79365C12.2249 3.7681 11.8952 2.90738 11.236 2.2481C10.595 1.58882 9.73427 1.25918 8.69042 1.25918ZM8.69042 7.22932C7.99451 7.22932 7.40848 6.99124 6.96897 6.55172C6.51113 6.09389 6.29137 5.50787 6.29137 4.83027C6.29137 4.13437 6.52945 3.54834 6.96897 3.10882C7.4268 2.65099 8.01282 2.43123 8.69042 2.43123C9.36801 2.43123 9.97235 2.6693 10.4119 3.10882C10.8697 3.56666 11.0895 4.15268 11.0895 4.83027C11.0895 5.52618 10.8514 6.11221 10.4119 6.55172C9.97235 6.99124 9.38632 7.22932 8.69042 7.22932ZM8.69042 2.76087C8.08608 2.76087 7.60993 2.944 7.22535 3.3469C6.84077 3.73148 6.63933 4.22593 6.63933 4.81196C6.63933 5.4163 6.82246 5.89245 7.22535 6.27703C7.62824 6.6616 8.10439 6.86305 8.69042 6.86305C9.27644 6.86305 9.7709 6.67992 10.1555 6.27703C10.5401 5.87413 10.7415 5.39799 10.7415 4.81196C10.7415 4.20762 10.5584 3.73148 10.1555 3.3469C9.7709 2.944 9.29475 2.76087 8.69042 2.76087Z" fill="black"/>
</svg>
