<svg width="501" height="52" viewBox="0 0 501 52" fill="none" xmlns="http://www.w3.org/2000/svg">
<path d="M27.3647 17.9003C27.3647 20.9754 26.7818 23.5916 25.616 25.7488C24.4594 27.9059 22.8805 29.5537 20.8794 30.6919C18.8874 31.821 16.6476 32.3855 14.16 32.3855C11.6539 32.3855 9.40497 31.8164 7.41302 30.6782C5.42106 29.5399 3.84678 27.8922 2.69016 25.735C1.53354 23.5778 0.955235 20.9662 0.955235 17.9003C0.955235 14.8251 1.53354 12.209 2.69016 10.0518C3.84678 7.89462 5.42106 6.25149 7.41302 5.12241C9.40497 3.98415 11.6539 3.41502 14.16 3.41502C16.6476 3.41502 18.8874 3.98415 20.8794 5.12241C22.8805 6.25149 24.4594 7.89462 25.616 10.0518C26.7818 12.209 27.3647 14.8251 27.3647 17.9003ZM21.32 17.9003C21.32 15.9083 21.0216 14.2285 20.425 12.8607C19.8375 11.493 19.0067 10.4557 17.9327 9.74888C16.8587 9.04206 15.6011 8.68865 14.16 8.68865C12.7188 8.68865 11.4612 9.04206 10.3872 9.74888C9.31317 10.4557 8.47784 11.493 7.88117 12.8607C7.29368 14.2285 6.99994 15.9083 6.99994 17.9003C6.99994 19.8922 7.29368 21.5721 7.88117 22.9398C8.47784 24.3076 9.31317 25.3449 10.3872 26.0517C11.4612 26.7585 12.7188 27.1119 14.16 27.1119C15.6011 27.1119 16.8587 26.7585 17.9327 26.0517C19.0067 25.3449 19.8375 24.3076 20.425 22.9398C21.0216 21.5721 21.32 19.8922 21.32 17.9003ZM37.5367 19.7729V32H31.671V10.8504H37.2613V14.5819H37.5092C37.9773 13.3518 38.7622 12.3788 39.8637 11.6628C40.9653 10.9376 42.3009 10.575 43.8706 10.575C45.3393 10.575 46.6198 10.8963 47.7122 11.5389C48.8046 12.1814 49.6537 13.0994 50.2595 14.2927C50.8654 15.4769 51.1683 16.8905 51.1683 18.5337V32H45.3026V19.5801C45.3118 18.2858 44.9813 17.2761 44.3112 16.5509C43.6411 15.8165 42.7185 15.4494 41.5436 15.4494C40.7541 15.4494 40.0565 15.6192 39.4506 15.9588C38.854 16.2985 38.3858 16.7941 38.0462 17.4459C37.7157 18.0885 37.5459 18.8641 37.5367 19.7729ZM61.657 3.80056V32H55.7913V3.80056H61.657ZM66.3558 32V10.8504H72.2215V32H66.3558ZM69.3024 8.12411C68.4303 8.12411 67.6822 7.83495 67.058 7.25664C66.443 6.66915 66.1355 5.96692 66.1355 5.14995C66.1355 4.34215 66.443 3.6491 67.058 3.07079C67.6822 2.4833 68.4303 2.18955 69.3024 2.18955C70.1744 2.18955 70.918 2.4833 71.533 3.07079C72.1572 3.6491 72.4693 4.34215 72.4693 5.14995C72.4693 5.96692 72.1572 6.66915 71.533 7.25664C70.918 7.83495 70.1744 8.12411 69.3024 8.12411ZM82.7859 19.7729V32H76.9202V10.8504H82.5106V14.5819H82.7584C83.2266 13.3518 84.0114 12.3788 85.1129 11.6628C86.2145 10.9376 87.5501 10.575 89.1198 10.575C90.5885 10.575 91.8691 10.8963 92.9614 11.5389C94.0538 12.1814 94.9029 13.0994 95.5087 14.2927C96.1146 15.4769 96.4175 16.8905 96.4175 18.5337V32H90.5518V19.5801C90.561 18.2858 90.2305 17.2761 89.5604 16.5509C88.8903 15.8165 87.9678 15.4494 86.7928 15.4494C86.0034 15.4494 85.3057 15.6192 84.6999 15.9588C84.1032 16.2985 83.635 16.7941 83.2954 17.4459C82.9649 18.0885 82.7951 18.8641 82.7859 19.7729ZM110.679 32.4131C108.503 32.4131 106.631 31.9725 105.061 31.0912C103.501 30.2008 102.298 28.9432 101.454 27.3185C100.609 25.6845 100.187 23.7522 100.187 21.5216C100.187 19.3461 100.609 17.4367 101.454 15.7936C102.298 14.1505 103.487 12.8699 105.02 11.952C106.562 11.034 108.37 10.575 110.445 10.575C111.84 10.575 113.139 10.7999 114.342 11.2497C115.553 11.6903 116.609 12.3559 117.509 13.2463C118.417 14.1367 119.124 15.2566 119.629 16.606C120.134 17.9462 120.386 19.5159 120.386 21.3151V22.9261H102.528V19.291H114.865C114.865 18.4465 114.681 17.6983 114.314 17.0466C113.947 16.3948 113.437 15.8854 112.786 15.5182C112.143 15.1418 111.395 14.9537 110.541 14.9537C109.651 14.9537 108.861 15.1602 108.173 15.5733C107.494 15.9772 106.961 16.5234 106.576 17.2118C106.19 17.8911 105.993 18.6484 105.984 19.4837V22.9398C105.984 23.9863 106.176 24.8905 106.562 25.6524C106.957 26.4143 107.512 27.0018 108.228 27.4148C108.944 27.8279 109.793 28.0345 110.775 28.0345C111.427 28.0345 112.024 27.9427 112.565 27.7591C113.107 27.5755 113.571 27.3001 113.956 26.9329C114.342 26.5657 114.635 26.1159 114.837 25.5835L120.262 25.9415C119.987 27.245 119.422 28.3833 118.569 29.3563C117.724 30.3202 116.632 31.0729 115.292 31.6145C113.961 32.1469 112.423 32.4131 110.679 32.4131ZM133.298 3.80056H140.651L148.417 22.7471H148.748L156.513 3.80056H163.866V32H158.083V13.6456H157.849L150.551 31.8623H146.613L139.316 13.5767H139.082V32H133.298V3.80056ZM172.097 32.358C171.188 32.358 170.408 32.0367 169.756 31.3942C169.113 30.7424 168.792 29.9621 168.792 29.0534C168.792 28.1538 169.113 27.3827 169.756 26.7401C170.408 26.0976 171.188 25.7763 172.097 25.7763C172.978 25.7763 173.749 26.0976 174.41 26.7401C175.071 27.3827 175.401 28.1538 175.401 29.0534C175.401 29.6592 175.245 30.2146 174.933 30.7195C174.63 31.2152 174.231 31.6145 173.735 31.9174C173.24 32.2111 172.693 32.358 172.097 32.358ZM185.188 32H178.799L188.534 3.80056H196.217L205.938 32H199.549L192.486 10.2446H192.265L185.188 32ZM184.789 20.9157H199.88V25.5698H184.789V20.9157ZM212.651 32.358C211.742 32.358 210.962 32.0367 210.31 31.3942C209.667 30.7424 209.346 29.9621 209.346 29.0534C209.346 28.1538 209.667 27.3827 210.31 26.7401C210.962 26.0976 211.742 25.7763 212.651 25.7763C213.532 25.7763 214.303 26.0976 214.964 26.7401C215.625 27.3827 215.955 28.1538 215.955 29.0534C215.955 29.6592 215.799 30.2146 215.487 30.7195C215.184 31.2152 214.785 31.6145 214.289 31.9174C213.794 32.2111 213.247 32.358 212.651 32.358ZM220.881 32V3.80056H226.843V15.4356H238.947V3.80056H244.895V32H238.947V20.3512H226.843V32H220.881ZM253.129 32.358C252.22 32.358 251.44 32.0367 250.788 31.3942C250.146 30.7424 249.824 29.9621 249.824 29.0534C249.824 28.1538 250.146 27.3827 250.788 26.7401C251.44 26.0976 252.22 25.7763 253.129 25.7763C254.01 25.7763 254.781 26.0976 255.442 26.7401C256.103 27.3827 256.433 28.1538 256.433 29.0534C256.433 29.6592 256.277 30.2146 255.965 30.7195C255.662 31.2152 255.263 31.6145 254.767 31.9174C254.272 32.2111 253.726 32.358 253.129 32.358ZM261.359 32V3.80056H280.361V8.71618H267.322V15.4356H279.383V20.3512H267.322V27.0844H280.416V32H261.359ZM309.374 32.6973C308.529 32.6973 307.747 32.4226 307.029 31.8732C306.352 31.3238 305.951 30.7955 305.824 30.2884C305.697 29.6967 306.479 27.5837 308.17 23.9492L306.712 26.0411C306.078 26.9709 305.444 27.795 304.81 28.5134C304.176 29.2319 303.584 29.8658 303.035 30.4152C301.429 31.9366 300.077 32.5705 298.978 32.317C296.442 31.7253 295.174 30.2884 295.174 28.0063C295.174 26.189 296.041 23.8647 297.773 21.0331C298.323 20.1879 299.02 19.3427 299.865 18.4975C300.71 17.6522 301.683 16.8281 302.781 16.0252C305.613 13.9543 308.339 12.9189 310.959 12.9189C312.565 12.9189 314.086 13.3416 315.523 14.1868C315.988 14.5249 316.22 14.8841 316.22 15.2645C316.22 15.5603 316.136 15.7082 315.967 15.7082C315.925 15.7082 315.882 15.6871 315.84 15.6448C314.953 14.6728 313.769 14.1868 312.29 14.1868C310.557 14.1868 308.677 14.8418 306.648 16.1519C304.62 17.462 302.802 19.2159 301.196 21.4135C298.914 24.5831 297.773 27.1611 297.773 29.1473C297.773 30.2884 298.175 31.0069 298.978 31.3027C299.992 31.7253 302.147 29.8447 305.444 25.6608C306.796 24.0126 307.916 22.5334 308.804 21.2233C309.733 19.9132 310.473 18.7933 311.022 17.8635C311.276 17.3987 311.741 17.1662 312.417 17.1662C313.685 17.1662 314.319 17.5466 314.319 18.3073C314.319 18.4341 314.298 18.5186 314.255 18.5608C310.579 24.3929 308.74 28.3444 308.74 30.4152C308.74 30.9223 308.888 31.197 309.184 31.2393C310.071 31.4929 311.551 30.8378 313.621 29.2741C316.115 27.4146 318.46 24.9423 320.658 21.8572C321.123 21.2233 321.545 20.9064 321.926 20.9064C322.053 20.9064 322.116 20.9486 322.116 21.0331C322.116 21.2445 321.926 21.6459 321.545 22.2376C320.658 23.6322 319.665 24.9423 318.566 26.1679C317.509 27.3935 316.326 28.5346 315.016 29.5911C313.156 31.1548 311.635 32.1268 310.452 32.5071C310.156 32.6339 309.797 32.6973 309.374 32.6973ZM332.661 32.6973C331.858 32.6973 331.098 32.486 330.379 32.0634C329.703 31.683 329.259 31.2604 329.048 30.7955C328.921 30.4575 328.858 30.0137 328.858 29.4643C328.858 28.7459 328.942 27.9218 329.111 26.992C329.28 26.02 329.534 24.9846 329.872 23.8858C329.576 24.4352 329.154 25.0691 328.604 25.7876C328.097 26.506 327.463 27.3512 326.702 28.3233C324.42 31.028 322.561 32.3804 321.124 32.3804C320.913 32.3804 320.744 32.3592 320.617 32.317C318.081 31.7253 316.813 30.2884 316.813 28.0063C316.813 26.189 317.68 23.8647 319.412 21.0331C320.511 19.3004 322.18 17.6311 324.42 16.0252C327.294 13.9121 330.02 12.8555 332.598 12.8555C333.57 12.8555 334.479 13.0035 335.324 13.2993L337.226 9.87611C338.198 8.14339 339.001 6.57972 339.634 5.18509C340.311 3.79046 340.86 2.586 341.283 1.57173C341.621 0.811023 342.804 0.430669 344.833 0.430669C345.762 0.430669 346.164 0.536323 346.037 0.74763L337.669 14.6305C337.838 14.8841 337.881 15.1799 337.796 15.518C337.754 15.7716 337.648 15.8139 337.479 15.6448L337.226 15.3912L336.401 16.7859C333.19 22.2376 331.584 26.4849 331.584 29.5277C331.584 30.711 331.985 31.3027 332.788 31.3027C333.676 31.3027 335.028 30.6265 336.845 29.2741C339.339 27.4146 341.684 24.9423 343.882 21.8572C344.347 21.2233 344.769 20.9064 345.15 20.9064C345.276 20.9064 345.34 20.9486 345.34 21.0331C345.34 21.2445 345.15 21.6459 344.769 22.2376C342.952 25.0269 340.839 27.478 338.43 29.5911C336.528 31.2393 335.049 32.2113 333.993 32.5071C333.57 32.6339 333.126 32.6973 332.661 32.6973ZM320.617 31.3027C321.631 31.7253 323.786 29.8447 327.083 25.6608C328.351 24.0548 329.449 22.6179 330.379 21.3501C331.309 20.04 332.07 18.8778 332.661 17.8635C332.83 17.5254 333.084 17.0606 333.422 16.4689C333.802 15.835 334.267 15.0954 334.817 14.2502C334.69 14.2079 334.542 14.1868 334.373 14.1868C334.246 14.1868 334.119 14.1868 333.993 14.1868C332.26 14.1868 330.4 14.8418 328.414 16.1519C326.428 17.4198 324.568 19.1736 322.836 21.4135C321.61 22.9772 320.722 24.4141 320.173 25.7242C319.666 27.0343 319.412 28.1753 319.412 29.1473C319.412 30.2884 319.814 31.0069 320.617 31.3027ZM345.906 32.7607C345.652 32.8452 344.617 32.2958 342.8 31.1125C342.588 30.9012 342.483 30.4997 342.483 29.9081C342.483 27.1188 343.687 22.47 346.096 15.9618C346.688 14.3136 347.491 13.4895 348.505 13.4895C349.012 13.4895 349.456 13.7219 349.836 14.1868C350.259 14.6094 350.407 14.9475 350.28 15.2011C349.815 16.1731 349.308 17.293 348.759 18.5608C348.251 19.7864 347.702 21.1599 347.11 22.6813C345.673 26.3581 344.955 28.8938 344.955 30.2884C344.955 30.8801 345.145 31.1759 345.525 31.1759C345.695 31.1759 345.864 31.1125 346.033 30.9857C346.709 30.5631 347.702 29.6756 349.012 28.3233C350.322 26.9709 351.949 25.1748 353.893 22.9349C358.119 18.0748 360.845 14.4404 362.071 12.0314C362.663 10.9326 363.275 10.3832 363.909 10.3832C364.459 10.3832 364.733 10.7213 364.733 11.3975C364.733 12.0314 364.395 12.7499 363.719 13.5529C362.155 15.4124 360.465 17.3775 358.648 19.4483C356.873 21.4769 354.992 23.6111 353.006 25.851C348.568 30.6265 346.202 32.9298 345.906 32.7607ZM376.109 32.6973C375.264 32.6973 374.482 32.4226 373.764 31.8732C373.088 31.3238 372.686 30.7955 372.559 30.2884C372.433 29.6967 373.214 27.5837 374.905 23.9492L373.447 26.0411C372.813 26.9709 372.179 27.795 371.545 28.5134C370.911 29.2319 370.319 29.8658 369.77 30.4152C368.164 31.9366 366.812 32.5705 365.713 32.317C363.177 31.7253 361.909 30.2884 361.909 28.0063C361.909 26.189 362.776 23.8647 364.508 21.0331C365.058 20.1879 365.755 19.3427 366.6 18.4975C367.446 17.6522 368.418 16.8281 369.516 16.0252C372.348 13.9543 375.074 12.9189 377.694 12.9189C379.3 12.9189 380.821 13.3416 382.258 14.1868C382.723 14.5249 382.956 14.8841 382.956 15.2645C382.956 15.5603 382.871 15.7082 382.702 15.7082C382.66 15.7082 382.618 15.6871 382.575 15.6448C381.688 14.6728 380.504 14.1868 379.025 14.1868C377.293 14.1868 375.412 14.8418 373.383 16.1519C371.355 17.462 369.538 19.2159 367.932 21.4135C365.65 24.5831 364.508 27.1611 364.508 29.1473C364.508 30.2884 364.91 31.0069 365.713 31.3027C366.727 31.7253 368.883 29.8447 372.179 25.6608C373.531 24.0126 374.651 22.5334 375.539 21.2233C376.468 19.9132 377.208 18.7933 377.757 17.8635C378.011 17.3987 378.476 17.1662 379.152 17.1662C380.42 17.1662 381.054 17.5466 381.054 18.3073C381.054 18.4341 381.033 18.5186 380.99 18.5608C377.314 24.3929 375.475 28.3444 375.475 30.4152C375.475 30.9223 375.623 31.197 375.919 31.2393C376.807 31.4929 378.286 30.8378 380.357 29.2741C382.85 27.4146 385.195 24.9423 387.393 21.8572C387.858 21.2233 388.281 20.9064 388.661 20.9064C388.788 20.9064 388.851 20.9486 388.851 21.0331C388.851 21.2445 388.661 21.6459 388.281 22.2376C387.393 23.6322 386.4 24.9423 385.301 26.1679C384.245 27.3935 383.061 28.5346 381.751 29.5911C379.892 31.1548 378.37 32.1268 377.187 32.5071C376.891 32.6339 376.532 32.6973 376.109 32.6973ZM398.319 32.6339C397.389 32.7184 396.502 32.486 395.656 31.9366C394.811 31.3449 394.389 30.6899 394.389 29.9714C394.389 28.6613 395.635 26.1468 398.129 22.4278C400.876 18.3284 402.249 15.9618 402.249 15.3278C402.249 14.9475 402.059 14.7362 401.679 14.6939C400.453 14.7784 398.551 16.004 395.973 18.3707C392.297 21.7939 388.852 26.4426 385.64 32.317C385.556 32.4015 385.323 32.4437 384.943 32.4437C383.126 32.4437 382.302 32.1902 382.471 31.683C382.936 30.4575 383.739 28.6191 384.88 26.1679C386.063 23.7167 387.584 20.6317 389.444 16.9126C390.712 14.4192 392.001 13.1725 393.311 13.1725C393.733 13.1725 394.008 13.2782 394.135 13.4895C394.219 13.6163 393.332 15.4335 391.472 18.9412C390.585 20.6317 389.888 21.984 389.381 22.9983C388.873 23.9703 388.514 24.6042 388.303 24.9001C389.021 24.1816 389.867 23.2941 390.839 22.2376C391.853 21.1811 393.015 19.9555 394.325 18.5608C396.396 16.2365 398.678 14.5037 401.171 13.3627C401.763 13.1091 402.439 12.9823 403.2 12.9823C404.933 12.9823 405.799 13.6163 405.799 14.8841C405.799 15.6871 405.398 16.6379 404.595 17.7367C400.03 24.1182 397.748 28.4078 397.748 30.6054C397.748 31.0702 397.896 31.3661 398.192 31.4929C398.868 31.7887 400.538 31.0914 403.2 29.4009C406.327 27.3724 408.99 24.8578 411.187 21.8572C411.652 21.2233 412.075 20.9064 412.455 20.9064C412.582 20.9064 412.645 20.9486 412.645 21.0331C412.645 21.2445 412.455 21.6459 412.075 22.2376C410.215 25.1536 407.638 27.7316 404.341 29.9714C401.383 31.9155 399.375 32.803 398.319 32.6339ZM413.592 33.0777C410.338 32.3592 408.711 30.8801 408.711 28.6402C408.711 28.0063 408.816 27.2667 409.028 26.4215C409.239 25.534 409.577 24.562 410.042 23.5054L415.43 11.3975C414.796 11.482 414.099 11.5666 413.338 11.6511C412.578 11.7356 411.732 11.8201 410.803 11.9047C410.634 11.9047 410.549 11.7567 410.549 11.4609C410.549 10.8693 410.655 10.5312 410.866 10.4466L416.191 9.68593L420.311 1.31816C420.692 0.557453 421.875 0.1771 423.861 0.1771C424.791 0.1771 425.193 0.282754 425.066 0.494063C424.136 1.97321 423.185 3.4735 422.213 4.99491C421.283 6.47406 420.354 7.95321 419.424 9.43237C419.551 9.3901 419.825 9.34784 420.248 9.30558C420.671 9.26332 421.22 9.22106 421.896 9.1788C422.403 9.13654 422.889 9.1154 423.354 9.1154C423.819 9.07314 424.263 9.05201 424.686 9.05201C426.461 9.05201 427.306 9.13654 427.221 9.30558C426.925 9.60141 424.052 10.1719 418.6 11.0172C413.993 19.723 411.69 25.8721 411.69 29.4643C411.69 30.7744 412.07 31.5563 412.831 31.8098C413.423 31.9789 414.923 31.197 417.332 29.4643C418.727 28.45 419.995 27.3512 421.136 26.1679C422.277 24.9423 423.312 23.6534 424.242 22.301C424.538 21.8784 424.812 21.6671 425.066 21.6671C425.235 21.6671 425.319 21.7516 425.319 21.9206C425.319 22.0897 425.214 22.3433 425.003 22.6813C423.397 25.2593 421.262 27.6893 418.6 29.9714C416.022 32.2113 414.353 33.2467 413.592 33.0777ZM437.149 32.6973C436.304 32.6973 435.522 32.4226 434.804 31.8732C434.127 31.3238 433.726 30.7955 433.599 30.2884C433.472 29.6967 434.254 27.5837 435.945 23.9492L434.487 26.0411C433.853 26.9709 433.219 27.795 432.585 28.5134C431.951 29.2319 431.359 29.8658 430.81 30.4152C429.204 31.9366 427.852 32.5705 426.753 32.317C424.217 31.7253 422.949 30.2884 422.949 28.0063C422.949 26.189 423.816 23.8647 425.548 21.0331C426.098 20.1879 426.795 19.3427 427.64 18.4975C428.485 17.6522 429.457 16.8281 430.556 16.0252C433.388 13.9543 436.114 12.9189 438.734 12.9189C440.34 12.9189 441.861 13.3416 443.298 14.1868C443.763 14.5249 443.995 14.8841 443.995 15.2645C443.995 15.5603 443.911 15.7082 443.742 15.7082C443.7 15.7082 443.657 15.6871 443.615 15.6448C442.728 14.6728 441.544 14.1868 440.065 14.1868C438.332 14.1868 436.452 14.8418 434.423 16.1519C432.395 17.462 430.577 19.2159 428.971 21.4135C426.689 24.5831 425.548 27.1611 425.548 29.1473C425.548 30.2884 425.95 31.0069 426.753 31.3027C427.767 31.7253 429.922 29.8447 433.219 25.6608C434.571 24.0126 435.691 22.5334 436.579 21.2233C437.508 19.9132 438.248 18.7933 438.797 17.8635C439.051 17.3987 439.516 17.1662 440.192 17.1662C441.46 17.1662 442.094 17.5466 442.094 18.3073C442.094 18.4341 442.073 18.5186 442.03 18.5608C438.354 24.3929 436.515 28.3444 436.515 30.4152C436.515 30.9223 436.663 31.197 436.959 31.2393C437.846 31.4929 439.326 30.8378 441.396 29.2741C443.89 27.4146 446.235 24.9423 448.433 21.8572C448.898 21.2233 449.32 20.9064 449.701 20.9064C449.828 20.9064 449.891 20.9486 449.891 21.0331C449.891 21.2445 449.701 21.6459 449.32 22.2376C448.433 23.6322 447.44 24.9423 446.341 26.1679C445.284 27.3935 444.101 28.5346 442.791 29.5911C440.931 31.1548 439.41 32.1268 438.227 32.5071C437.931 32.6339 437.572 32.6973 437.149 32.6973ZM442.053 51.5248C440.447 51.5248 439.644 50.7218 439.644 49.1159C439.644 47.8058 440.214 46.2421 441.355 44.4249C442.074 43.2838 442.982 42.0582 444.081 40.7481C445.222 39.4803 446.575 38.1279 448.138 36.691C450.927 33.9863 453.886 31.6408 457.013 29.6545C457.393 28.7247 457.816 27.5837 458.281 26.2313C458.746 24.8789 459.274 23.273 459.866 21.4135C459.739 21.7093 459.274 22.3221 458.471 23.2519C457.71 24.1394 456.59 25.3861 455.111 26.992C451.561 30.9223 449.047 32.6973 447.568 32.317C445.286 31.7253 444.144 30.4575 444.144 28.5134C444.144 26.6117 445.264 24.1182 447.504 21.0331C448.138 20.1879 448.92 19.3427 449.85 18.4975C450.78 17.6522 451.836 16.8281 453.019 16.0252C456.02 13.9543 458.851 12.9189 461.514 12.9189C463.162 12.9189 464.662 13.3416 466.015 14.1868C466.395 14.4404 466.585 14.7573 466.585 15.1377C466.585 15.518 466.501 15.7082 466.332 15.7082C466.289 15.7082 466.247 15.6871 466.205 15.6448C465.36 14.6728 464.198 14.1868 462.718 14.1868C460.986 14.1868 459.042 14.8418 456.886 16.1519C454.731 17.462 452.745 19.2159 450.927 21.4135C448.096 24.8789 446.68 27.5837 446.68 29.5277C446.68 30.4152 447.018 31.0069 447.694 31.3027C448.624 31.683 450.97 29.8024 454.731 25.6608C456.21 24.0126 457.478 22.5334 458.535 21.2233C459.633 19.9132 460.5 18.7933 461.134 17.8635C461.429 17.4409 461.852 17.2296 462.401 17.2296C463.416 17.2296 463.923 17.61 463.923 18.3707C463.923 18.5397 463.859 18.7299 463.733 18.9412C463.437 19.7864 463.035 20.9275 462.528 22.3644C462.021 23.759 461.408 25.4495 460.69 27.4358C462.042 26.6328 463.12 26.2313 463.923 26.2313C464.261 26.2313 464.43 26.3158 464.43 26.4849C464.43 26.9075 463.902 27.309 462.845 27.6893C462.423 27.8584 461.958 28.0486 461.451 28.2599C460.986 28.4712 460.479 28.7247 459.929 29.0206C456.971 36.3741 453.4 42.4386 449.216 47.2141C446.68 50.0879 444.292 51.5248 442.053 51.5248ZM443.384 50.1936C444.187 50.1936 445.159 49.5385 446.3 48.2284C450.061 44.0023 453.357 38.466 456.189 31.6196C450.568 35.8035 446.384 40.1565 443.637 44.6784C442.708 46.1576 442.243 47.4677 442.243 48.6088C442.243 49.6653 442.623 50.1936 443.384 50.1936ZM470.948 32.5071C469.722 32.5071 468.645 32.2113 467.715 31.6196C466.489 30.7744 465.877 29.5488 465.877 27.9429C465.877 26.2102 466.616 24.0971 468.095 21.6037C470.082 18.3495 472.998 15.4969 476.843 13.0457C477.816 12.4118 478.788 12.0948 479.76 12.0948C481.027 12.0948 481.936 12.4963 482.485 13.2993C482.823 13.7642 482.993 14.2924 482.993 14.8841C482.993 16.6591 481.556 18.6031 478.682 20.7162C477.837 21.3078 476.928 21.8572 475.956 22.3644C475.026 22.8293 474.012 23.1673 472.913 23.3787L470.187 23.9492C469.173 25.7664 468.666 27.2878 468.666 28.5134C468.666 30.2039 469.659 31.0491 471.645 31.0491C473.209 31.0491 475.111 30.3941 477.351 29.084C480.351 27.3512 482.929 24.9423 485.084 21.8572C485.423 21.3501 485.74 21.0965 486.035 21.0965C486.162 21.0965 486.226 21.1811 486.226 21.3501C486.226 21.5614 486.078 21.8784 485.782 22.301C481.682 28.4712 477.055 31.8521 471.899 32.4437C471.73 32.486 471.561 32.5071 471.392 32.5071C471.265 32.5071 471.117 32.5071 470.948 32.5071ZM470.948 22.8715C472.131 22.8715 473.653 22.3433 475.512 21.2867C478.132 19.8076 479.971 17.9058 481.027 15.5814C481.323 14.9898 481.471 14.5037 481.471 14.1234C481.471 13.743 481.323 13.5529 481.027 13.5529C480.478 13.5529 479.358 14.229 477.668 15.5814C476.442 16.6379 475.238 17.779 474.054 19.0046C472.913 20.1879 471.814 21.4558 470.758 22.8081C470.716 22.8504 470.779 22.8715 470.948 22.8715ZM483.687 34.5991C483.518 34.5991 483.433 34.5357 483.433 34.4089C483.433 33.8595 484.87 32.8452 487.744 31.3661C488.462 31.028 489.117 30.6899 489.709 30.3518C490.301 29.9714 490.808 29.6334 491.231 29.3375C493.808 27.4358 495.097 25.7876 495.097 24.3929C495.097 23.3364 494.062 22.8081 491.991 22.8081C487.173 22.7236 484.765 21.6671 484.765 19.6385C484.765 18.751 485.145 17.9058 485.906 17.1028C486.793 16.0886 488.272 15.1165 490.343 14.1868C492.583 13.1725 494.633 12.6654 496.492 12.6654C498.14 12.6654 499.387 13.0669 500.232 13.8698C500.613 14.2502 500.803 14.7151 500.803 15.2645C500.803 15.8561 500.613 16.3844 500.232 16.8493C499.852 17.3141 499.429 17.5466 498.964 17.5466C498.119 17.5466 497.654 16.976 497.57 15.835C497.57 15.032 497.443 14.5671 497.189 14.4404C496.936 14.3136 496.26 14.2502 495.161 14.2502C493.766 14.2502 492.203 14.7151 490.47 15.6448C488.399 16.7013 487.427 17.9692 487.554 19.4483C487.638 20.2936 489.244 20.7162 492.372 20.7162C496.64 20.7162 498.774 21.7516 498.774 23.8224C498.774 26.0623 496.936 28.3021 493.259 30.542C490.935 31.9789 488.103 33.2467 484.765 34.3455C484.3 34.5146 483.94 34.5991 483.687 34.5991Z" fill="#020D52"/>
</svg>
