<svg width="21" height="20" viewBox="0 0 21 20" fill="none" xmlns="http://www.w3.org/2000/svg">
<path d="M10.8064 19.4547C9.41181 19.4547 8.11016 19.2032 6.88598 18.7003C5.66181 18.1826 4.59259 17.5022 3.66284 16.6295C2.74858 15.7568 2.02027 14.7362 1.49341 13.5677C0.966555 12.4139 0.703125 11.1567 0.703125 9.84022C0.703125 8.50898 0.966555 7.26649 1.49341 6.09796C2.02027 4.92943 2.74858 3.90882 3.66284 3.05091C4.57709 2.17821 5.64631 1.48301 6.87049 0.980096C8.09466 0.462393 9.39631 0.210938 10.7909 0.210938C12.1856 0.210938 13.4872 0.462393 14.6959 0.980096C15.9046 1.4978 16.9738 2.17821 17.8881 3.05091C18.8023 3.92361 19.5306 4.92943 20.0575 6.09796C20.5843 7.26649 20.8478 8.50898 20.8478 9.84022C20.8478 11.1715 20.5843 12.4139 20.0575 13.5825C19.5306 14.751 18.8023 15.7716 17.8881 16.6443C16.9738 17.517 15.9046 18.1974 14.6804 18.7003C13.4872 19.2032 12.1856 19.4547 10.8064 19.4547ZM9.8147 17.2951V15.461C9.25685 15.461 8.80747 15.2687 8.43557 14.8841C8.07916 14.4995 7.89321 14.0558 7.89321 13.5381V12.5619L3.16697 8.06523C3.08949 8.36106 3.02751 8.65689 2.99652 8.93793C2.96552 9.21897 2.95003 9.50001 2.95003 9.79584C2.95003 11.7039 3.60085 13.3754 4.88701 14.8102C6.17317 16.2449 7.83123 17.0881 9.8147 17.2951ZM16.5864 14.9285C16.9118 14.5883 17.2062 14.2037 17.4697 13.8043C17.7176 13.405 17.9345 12.9908 18.105 12.5471C18.2754 12.1033 18.4149 11.6596 18.4924 11.201C18.5854 10.7425 18.6164 10.2692 18.6164 9.78105C18.6164 8.24273 18.167 6.83754 17.2837 5.58026C16.4004 4.32298 15.2228 3.39111 13.7352 2.79945V3.18403C13.7352 3.68694 13.5492 4.13069 13.1618 4.51527C12.7744 4.89985 12.325 5.07735 11.7827 5.07735H9.8147V7.00024C9.8147 7.26649 9.70623 7.47357 9.48929 7.63628C9.27235 7.79899 9.03991 7.87294 8.76098 7.87294H6.87049V9.79584H12.8209C13.0843 9.79584 13.3013 9.89938 13.4717 10.0917C13.6422 10.284 13.7352 10.5058 13.7352 10.7573V13.5381H14.7114C15.1608 13.5381 15.5482 13.6712 15.8891 13.9227C16.23 14.1889 16.4624 14.5143 16.5864 14.9285Z" fill="black"/>
</svg>
