<svg width="18" height="17" viewBox="0 0 18 17" fill="none" xmlns="http://www.w3.org/2000/svg">
<path d="M12.5863 16.4309H5.72174V14.708H1.82823C1.4348 14.708 1.08208 14.5588 0.783624 14.2603C0.485166 13.9619 0.335938 13.6091 0.335938 13.2157V2.02354C0.335938 1.63012 0.485166 1.27739 0.783624 0.978937C1.08208 0.680479 1.4348 0.53125 1.82823 0.53125H16.4798C16.8732 0.53125 17.2259 0.680479 17.5244 0.978937C17.8228 1.27739 17.9721 1.63012 17.9721 2.02354V13.2293C17.9721 13.6227 17.8228 13.9754 17.5244 14.2739C17.2259 14.5723 16.8732 14.7216 16.4798 14.7216H12.5863V16.4309ZM6.11517 16.0375H12.1793V14.3146H16.4798C16.7782 14.3146 17.0224 14.206 17.2395 13.989C17.4566 13.7719 17.5651 13.5142 17.5651 13.2293V2.02354C17.5651 1.72508 17.4566 1.48089 17.2395 1.26383C17.0224 1.04677 16.7647 0.938238 16.4798 0.938238H1.82823C1.52977 0.938238 1.28558 1.04677 1.06852 1.26383C0.851455 1.48089 0.742925 1.73865 0.742925 2.02354V13.2293C0.742925 13.5277 0.851455 13.7719 1.06852 13.989C1.28558 14.206 1.54333 14.3146 1.82823 14.3146H6.11517V16.0375ZM16.6833 13.4192H1.62473V1.82004H16.6697V13.4192H16.6833ZM2.03172 13.0258H16.2899V2.21347H2.03172V13.0258ZM6.86131 11.642V3.59723L13.1832 7.6264L6.86131 11.642ZM7.2683 4.31624V10.923L12.4506 7.6264L7.2683 4.31624Z" fill="black"/>
</svg>
