<svg width="24" height="20" viewBox="0 0 24 20" fill="none" xmlns="http://www.w3.org/2000/svg">
<path d="M8.15384 19.6548C7.55443 19.6548 7.01982 19.428 6.58242 18.9906C6.14501 18.5531 5.93441 18.0185 5.93441 17.4191V15.6047C5.93441 15.2807 6.04781 15.0215 6.25841 14.8109C6.46902 14.6003 6.72822 14.4869 7.05223 14.4869H9.56326V10.9228C8.88285 10.9552 8.20244 10.8256 7.50583 10.5664C6.80922 10.3072 6.19361 9.91842 5.65901 9.40001V7.82859H4.31439L1.26874 4.81535C1.05814 4.60475 0.960938 4.37794 0.960938 4.10254C0.960938 3.82713 1.05814 3.61653 1.26874 3.47073C1.91675 2.98472 2.66196 2.57972 3.47197 2.28811C4.29819 1.98031 5.1082 1.83451 5.91821 1.83451C6.42042 1.83451 7.01983 1.91551 7.70024 2.09371C8.38065 2.27191 8.99625 2.53112 9.53086 2.88752V1.6725C9.53086 1.3485 9.64426 1.0893 9.85487 0.878692C10.0655 0.668089 10.3247 0.554688 10.6487 0.554688H21.9888C22.3128 0.554688 22.5721 0.668089 22.7827 0.878692C22.9933 1.0893 23.1067 1.3485 23.1067 1.6725V16.3175C23.1067 17.2409 22.7827 18.0347 22.1184 18.699C21.4704 19.347 20.6766 19.6872 19.737 19.6872H8.15384V19.6548ZM11.7827 14.4869H17.55C17.874 14.4869 18.1332 14.6003 18.3438 14.8109C18.5544 15.0215 18.6678 15.2807 18.6678 15.6047V16.3013C18.6678 16.6415 18.765 16.9169 18.9756 17.1113C19.1862 17.3057 19.4454 17.4191 19.7856 17.4191C20.1258 17.4191 20.385 17.3219 20.5956 17.1113C20.8062 16.9169 20.9034 16.6415 20.9034 16.3013V2.79032H11.7827V4.42654L17.6796 10.3234C17.8092 10.453 17.9226 10.5826 18.0036 10.7122C18.0846 10.8418 18.1332 10.9876 18.1332 11.182C18.1332 11.4412 18.036 11.668 17.8578 11.8463C17.6796 12.0245 17.4528 12.1217 17.1936 12.1217C17.0154 12.1217 16.8534 12.0731 16.74 11.9921C16.6104 11.9111 16.497 11.8139 16.3674 11.6842L13.4837 8.78441L13.0625 9.28661C12.8519 9.52962 12.6413 9.72402 12.4469 9.85362C12.2525 9.98322 12.0257 10.1128 11.7827 10.2262V14.4869ZM5.1244 5.96557H7.50583V8.4928C7.79744 8.68721 8.10524 8.83301 8.39685 8.93021C8.68845 9.02741 8.99625 9.07601 9.30406 9.07601C9.75767 9.07601 10.2113 8.94641 10.6811 8.70341C11.1509 8.4442 11.4749 8.2174 11.6693 7.9744L12.1067 7.45599L10.2599 5.59296C9.66046 4.99355 8.99625 4.52374 8.26724 4.18354C7.53823 3.84333 6.76062 3.66513 5.93441 3.66513C5.4484 3.66513 5.011 3.72993 4.63839 3.84334C4.26579 3.95674 3.87698 4.11874 3.47197 4.31314L5.1244 5.96557ZM8.15384 17.4191H16.821C16.6914 17.3219 16.5942 17.1923 16.5294 16.9979C16.4646 16.8035 16.4322 16.5929 16.4322 16.3499H8.15384V17.4191Z" fill="black"/>
</svg>
