<svg width="23" height="23" viewBox="0 0 23 23" fill="none" xmlns="http://www.w3.org/2000/svg">
<path d="M6.37798 22.0547C5.57714 22.0547 4.89071 21.7651 4.31868 21.1859C3.74665 20.6067 3.46064 19.9167 3.46064 19.1159C3.46064 18.3008 3.74665 17.6108 4.31868 17.0459C4.89071 16.481 5.57714 16.1986 6.37798 16.1986C6.57819 16.1986 6.77124 16.2129 6.95715 16.2415C7.14306 16.2701 7.30752 16.313 7.45053 16.3702L8.97355 14.3967C8.74474 14.0821 8.55883 13.721 8.41582 13.3134C8.27281 12.9058 8.22991 12.4947 8.28712 12.08L6.05621 11.2219C5.8131 11.5937 5.49133 11.8869 5.09092 12.1014C4.6905 12.3159 4.22573 12.4232 3.6966 12.4232C2.89576 12.4232 2.20576 12.1372 1.62658 11.5651C1.0474 10.9931 0.757812 10.3067 0.757812 9.50585C0.757812 8.70501 1.0474 8.01143 1.62658 7.4251C2.20576 6.83878 2.89576 6.54561 3.6966 6.54561C4.51174 6.54561 5.20175 6.83878 5.76662 7.4251C6.3315 8.01143 6.61394 8.70501 6.61394 9.50585V9.5273C6.61394 9.54637 6.61394 9.54637 6.61394 9.5273L8.84484 10.4282C9.10225 9.99922 9.40972 9.66673 9.76723 9.43077C10.1248 9.19481 10.5037 9.01963 10.9041 8.90522V6.48126C10.3464 6.30965 9.86376 5.95928 9.4562 5.43016C9.04863 4.90103 8.84484 4.31471 8.84484 3.67118C8.84484 2.87034 9.13443 2.17676 9.71361 1.59043C10.2928 1.0041 10.9828 0.710938 11.7836 0.710938C12.5988 0.710938 13.2924 1.0041 13.8644 1.59043C14.4364 2.17676 14.7224 2.87034 14.7224 3.67118C14.7224 4.31471 14.5186 4.90103 14.1111 5.43016C13.7035 5.95928 13.2208 6.30965 12.6631 6.48126V8.90522C13.0635 9.01963 13.4461 9.19839 13.8107 9.4415C14.1754 9.68461 14.4936 10.0135 14.7653 10.4282L16.9533 9.5273V9.53803V9.50585C16.9533 8.70501 17.2393 8.01143 17.8114 7.4251C18.3834 6.83877 19.0698 6.54561 19.8707 6.54561C20.6715 6.54561 21.3651 6.83877 21.9514 7.4251C22.5377 8.01143 22.8309 8.70501 22.8309 9.50585C22.8309 10.3067 22.5377 10.9931 21.9514 11.5651C21.3651 12.1372 20.6715 12.4232 19.8707 12.4232C19.3558 12.4232 18.8911 12.3159 18.4763 12.1014C18.0616 11.8869 17.7327 11.5866 17.4896 11.2005L15.2801 12.08C15.3087 12.509 15.2623 12.9237 15.1407 13.3241C15.0192 13.7245 14.8368 14.0821 14.5937 14.3967L16.1382 16.4131C16.2812 16.3416 16.4421 16.2879 16.6208 16.2522C16.7996 16.2164 16.9891 16.1986 17.1893 16.1986C18.0044 16.1986 18.698 16.4846 19.27 17.0566C19.8421 17.6286 20.1281 18.3151 20.1281 19.1159C20.1281 19.9167 19.8385 20.6067 19.2593 21.1859C18.6801 21.7651 17.9901 22.0547 17.1893 22.0547C16.3884 22.0547 15.6984 21.7687 15.1193 21.1966C14.5401 20.6246 14.2505 19.931 14.2505 19.1159C14.2505 18.787 14.2934 18.4867 14.3792 18.215C14.465 17.9432 14.5794 17.693 14.7224 17.4642L13.2208 15.5121C12.7632 15.7123 12.2806 15.8125 11.7729 15.8125C11.2652 15.8125 10.7897 15.7123 10.3464 15.5121L8.84484 17.4856C8.98785 17.7144 9.10225 17.9611 9.18806 18.2257C9.27386 18.4902 9.31676 18.787 9.31676 19.1159C9.31676 19.931 9.02717 20.6246 8.448 21.1966C7.86882 21.7687 7.17881 22.0547 6.37798 22.0547ZM3.6966 10.6642C4.01122 10.6642 4.28293 10.5498 4.51174 10.321C4.74055 10.0922 4.85496 9.81332 4.85496 9.4844C4.85496 9.16978 4.74055 8.90165 4.51174 8.67999C4.28293 8.45833 4.00407 8.3475 3.67515 8.3475C3.36054 8.3475 3.0924 8.45833 2.87074 8.67999C2.64908 8.90165 2.53825 9.17694 2.53825 9.50585C2.53825 9.82047 2.64908 10.0922 2.87074 10.321C3.0924 10.5498 3.36769 10.6642 3.6966 10.6642ZM6.37798 20.2743C6.70689 20.2743 6.98218 20.1634 7.20384 19.9418C7.4255 19.7201 7.53633 19.4448 7.53633 19.1159C7.53633 18.8013 7.4255 18.5296 7.20384 18.3008C6.98218 18.072 6.70689 17.9575 6.37798 17.9575C6.04906 17.9575 5.77377 18.072 5.55211 18.3008C5.33045 18.5296 5.21962 18.8013 5.21962 19.1159C5.21962 19.4448 5.33045 19.7201 5.55211 19.9418C5.77377 20.1634 6.04906 20.2743 6.37798 20.2743ZM11.7836 4.82953C12.1125 4.82953 12.3878 4.71513 12.6095 4.48631C12.8312 4.2575 12.942 3.98579 12.942 3.67118C12.942 3.34226 12.8312 3.06697 12.6095 2.84531C12.3878 2.62365 12.1125 2.51282 11.7836 2.51282C11.4547 2.51282 11.1794 2.62365 10.9578 2.84531C10.7361 3.06697 10.6253 3.34226 10.6253 3.67118C10.6253 3.98579 10.7361 4.2575 10.9578 4.48632C11.1794 4.71513 11.4547 4.82953 11.7836 4.82953ZM11.7836 13.7961C12.1983 13.7961 12.5487 13.6495 12.8347 13.3563C13.1207 13.0631 13.2638 12.7164 13.2637 12.3159C13.2638 11.9012 13.1207 11.5508 12.8347 11.2648C12.5487 10.9788 12.1983 10.8358 11.7836 10.8358C11.3832 10.8358 11.0364 10.9788 10.7433 11.2648C10.4501 11.5508 10.3035 11.9012 10.3035 12.3159C10.3035 12.7164 10.4501 13.0631 10.7433 13.3563C11.0364 13.6495 11.3832 13.7961 11.7836 13.7961ZM17.1893 20.2743C17.5182 20.2743 17.7935 20.1634 18.0151 19.9418C18.2368 19.7201 18.3476 19.4448 18.3476 19.1159C18.3476 18.8013 18.2368 18.5296 18.0151 18.3008C17.7935 18.072 17.5182 17.9575 17.1893 17.9575C16.8604 17.9575 16.5851 18.072 16.3634 18.3008C16.1418 18.5296 16.0309 18.8013 16.0309 19.1159C16.0309 19.4448 16.1418 19.7201 16.3634 19.9418C16.5851 20.1634 16.8604 20.2743 17.1893 20.2743ZM19.8921 10.6642C20.2067 10.6642 20.4749 10.5498 20.6965 10.321C20.9182 10.0922 21.029 9.81332 21.029 9.4844C21.029 9.16978 20.9182 8.90165 20.6965 8.67999C20.4749 8.45833 20.1996 8.3475 19.8707 8.3475C19.556 8.3475 19.2843 8.45833 19.0555 8.67999C18.8267 8.90165 18.7123 9.17694 18.7123 9.50585C18.7123 9.82047 18.8267 10.0922 19.0555 10.321C19.2843 10.5498 19.5632 10.6642 19.8921 10.6642Z" fill="black"/>
</svg>
